<?xml version="1.0" standalone="no"?>
<!DOCTYPE svg PUBLIC "-//W3C//DTD SVG 20010904//EN"
 "http://www.w3.org/TR/2001/REC-SVG-20010904/DTD/svg10.dtd">
<svg version="1.0" xmlns="http://www.w3.org/2000/svg"
 width="1000.000000pt" height="1000.000000pt" viewBox="0 0 1000.000000 1000.000000"
 preserveAspectRatio="xMidYMid meet">
<metadata>
Created by potrace 1.11, written by Peter Selinger 2001-2013
</metadata>
<g transform="translate(0.000000,1000.000000) scale(0.100000,-0.100000)"
fill="#000000" stroke="none">
<path d="M5059 8215 c-4 -3 -19 -8 -35 -11 -36 -6 -134 -53 -134 -65 0 -5 -5
-9 -11 -9 -17 0 -129 -117 -129 -134 0 -8 -4 -16 -8 -18 -16 -6 -49 -65 -76
-133 -16 -38 -32 -78 -37 -87 -5 -10 -9 -27 -9 -38 0 -11 -4 -20 -10 -20 -5 0
-10 -8 -10 -17 0 -19 -18 -79 -31 -105 -5 -10 -9 -31 -9 -48 0 -16 -4 -30 -10
-30 -5 0 -10 -13 -10 -30 0 -16 -4 -30 -9 -30 -5 0 -11 -17 -14 -37 -3 -21
-10 -56 -17 -78 -6 -22 -15 -56 -20 -75 -33 -141 -73 -298 -80 -315 -9 -21
-18 -60 -27 -113 -3 -18 -9 -35 -14 -38 -5 -3 -9 -18 -9 -35 0 -16 -4 -29 -10
-29 -5 0 -10 -16 -10 -35 0 -19 -4 -35 -10 -35 -5 0 -10 -13 -10 -30 0 -16 -4
-30 -10 -30 -5 0 -10 -13 -10 -29 0 -17 -4 -33 -10 -36 -5 -3 -10 -16 -10 -29
0 -12 -4 -26 -8 -32 -5 -5 -14 -29 -21 -54 -14 -47 -26 -81 -60 -169 -12 -29
-21 -62 -21 -72 0 -11 -4 -19 -10 -19 -5 0 -10 -9 -10 -19 0 -11 -4 -23 -10
-26 -5 -3 -10 -17 -10 -31 0 -13 -4 -24 -10 -24 -5 0 -10 -11 -10 -25 0 -14
-4 -25 -10 -25 -5 0 -10 -11 -10 -25 0 -14 -4 -25 -10 -25 -5 0 -10 -7 -10
-15 0 -8 -9 -34 -19 -58 -10 -23 -21 -50 -25 -59 -5 -17 -33 -18 -388 -18
-211 0 -486 -3 -613 -6 -791 -20 -982 -25 -1085 -34 -187 -15 -234 -21 -245
-31 -5 -5 -28 -9 -51 -9 -24 0 -45 -4 -48 -9 -3 -4 -19 -11 -35 -14 -42 -9
-123 -48 -142 -69 -9 -10 -21 -18 -26 -18 -6 0 -21 -14 -34 -32 -13 -17 -29
-37 -36 -43 -28 -29 -46 -115 -39 -193 3 -42 11 -78 16 -80 6 -2 10 -12 10
-23 0 -10 5 -19 10 -19 6 0 10 -5 10 -10 0 -27 188 -190 220 -190 5 0 10 -4
10 -10 0 -5 9 -10 20 -10 11 0 20 -4 20 -8 0 -10 179 -102 198 -102 6 0 12 -4
12 -10 0 -5 9 -10 20 -10 11 0 20 -4 20 -10 0 -5 9 -10 20 -10 11 0 20 -4 20
-10 0 -5 5 -10 10 -10 6 0 43 -16 83 -35 39 -19 77 -35 84 -35 6 0 13 -3 15
-8 2 -4 48 -29 103 -57 55 -27 102 -53 103 -57 2 -5 12 -8 23 -8 10 0 19 -4
19 -10 0 -5 9 -10 19 -10 11 0 21 -3 23 -7 2 -5 31 -21 66 -37 34 -16 62 -33
62 -38 0 -4 9 -8 20 -8 11 0 20 -4 20 -10 0 -5 9 -10 20 -10 11 0 20 -4 20
-10 0 -5 9 -10 19 -10 11 0 21 -3 23 -7 2 -5 31 -21 66 -37 34 -16 62 -33 62
-38 0 -4 9 -8 20 -8 11 0 20 -4 20 -10 0 -5 9 -10 20 -10 11 0 20 -4 20 -9 0
-5 8 -11 18 -14 9 -3 41 -20 70 -36 29 -17 60 -31 67 -31 8 0 15 -4 15 -8 0
-5 12 -15 28 -23 15 -8 29 -16 32 -19 3 -3 32 -19 65 -35 33 -17 62 -33 63
-37 2 -5 11 -8 21 -8 9 0 23 -9 31 -20 8 -11 20 -20 28 -20 14 0 8 -36 -9 -55
-5 -5 -9 -19 -9 -32 0 -13 -4 -23 -10 -23 -5 0 -10 -9 -10 -20 0 -11 -4 -20
-10 -20 -5 0 -10 -9 -10 -20 0 -11 -4 -20 -10 -20 -5 0 -10 -11 -10 -25 0 -14
-4 -25 -10 -25 -5 0 -10 -9 -10 -20 0 -11 -4 -20 -10 -20 -5 0 -10 -5 -10 -11
0 -11 -44 -108 -91 -202 -10 -22 -19 -45 -19 -53 0 -8 -4 -14 -10 -14 -5 0
-10 -5 -10 -10 0 -15 -43 -105 -52 -108 -4 -2 -8 -12 -8 -23 0 -10 -4 -19 -10
-19 -5 0 -10 -7 -10 -15 0 -8 -9 -30 -20 -50 -11 -20 -20 -42 -20 -50 0 -8 -4
-15 -10 -15 -5 0 -10 -6 -10 -14 0 -8 -11 -34 -25 -57 -14 -24 -25 -52 -25
-61 0 -10 -3 -18 -7 -18 -5 0 -19 -25 -33 -55 -14 -30 -28 -55 -32 -55 -5 0
-8 -9 -8 -20 0 -11 -4 -20 -10 -20 -5 0 -10 -6 -10 -14 0 -7 -17 -44 -38 -82
-20 -38 -51 -96 -67 -129 -17 -33 -33 -61 -37 -63 -5 -2 -8 -12 -8 -23 0 -10
-4 -19 -10 -19 -5 0 -10 -9 -10 -20 0 -11 -4 -20 -10 -20 -5 0 -10 -7 -10 -15
0 -8 -4 -15 -10 -15 -5 0 -10 -8 -10 -18 0 -10 -9 -24 -20 -32 -11 -8 -20 -22
-20 -32 0 -10 -3 -18 -8 -18 -4 0 -13 -15 -21 -33 -8 -17 -17 -34 -21 -37 -10
-9 -80 -131 -80 -141 0 -5 -4 -9 -10 -9 -5 0 -10 -7 -10 -15 0 -8 -4 -15 -10
-15 -5 0 -10 -7 -10 -15 0 -8 -4 -15 -10 -15 -5 0 -10 -7 -10 -15 0 -8 -4 -15
-10 -15 -5 0 -10 -9 -10 -20 0 -11 -4 -20 -10 -20 -5 0 -10 -9 -10 -19 0 -11
-4 -21 -8 -23 -4 -1 -19 -25 -32 -53 -19 -41 -24 -67 -24 -140 -1 -87 15 -155
35 -155 5 0 9 -5 9 -10 0 -16 68 -80 85 -80 8 0 15 -3 15 -7 0 -5 12 -14 27
-20 32 -16 203 -18 203 -3 0 6 9 10 20 10 11 0 20 5 20 10 0 6 5 10 12 10 11
0 63 51 101 98 9 12 17 36 17 52 0 17 5 30 10 30 6 0 10 9 10 20 0 11 5 20 10
20 6 0 10 9 10 20 0 11 3 20 8 20 4 0 12 10 18 23 27 55 86 152 95 155 5 2 9
11 9 21 0 9 9 23 20 31 11 8 20 22 20 32 0 10 5 18 10 18 6 0 10 7 10 15 0 8
5 15 10 15 6 0 10 9 10 19 0 11 4 21 9 23 4 2 30 44 56 93 26 50 52 94 56 100
5 5 9 17 9 27 0 10 5 18 10 18 6 0 10 9 10 20 0 11 5 20 10 20 6 0 10 7 10 15
0 8 5 15 10 15 6 0 10 9 10 20 0 11 5 20 10 20 6 0 10 9 10 20 0 11 5 20 10
20 6 0 10 9 10 20 0 11 5 20 10 20 6 0 10 7 10 15 0 8 5 15 10 15 6 0 10 9 10
20 0 11 5 20 10 20 6 0 10 9 10 20 0 11 5 20 10 20 6 0 10 6 10 14 0 17 92
200 103 204 4 2 7 15 7 28 0 13 5 24 10 24 6 0 10 9 10 20 0 11 5 20 10 20 6
0 10 9 10 20 0 11 5 20 10 20 6 0 10 9 10 20 0 11 5 20 10 20 6 0 10 6 10 14
0 8 9 31 20 53 40 78 70 147 70 160 0 7 5 13 10 13 6 0 10 9 10 20 0 11 5 20
10 20 6 0 10 11 10 25 0 14 5 25 10 25 6 0 10 9 10 20 0 11 5 20 10 20 6 0 10
9 10 20 0 11 5 20 10 20 6 0 10 6 10 13 0 7 13 40 30 74 16 33 39 82 50 108
11 26 23 45 28 43 52 -25 82 -43 82 -50 0 -4 9 -8 20 -8 11 0 20 -4 20 -10 0
-5 4 -10 9 -10 9 0 118 -63 138 -80 7 -5 19 -10 28 -10 8 0 15 -4 15 -10 0 -5
6 -10 13 -10 7 0 23 -9 35 -20 12 -11 28 -20 36 -20 8 0 16 -3 18 -7 2 -5 21
-17 43 -28 22 -11 49 -28 59 -38 11 -9 26 -17 33 -17 7 0 13 -4 13 -10 0 -5 9
-10 20 -10 11 0 20 -3 20 -7 0 -5 10 -13 23 -19 60 -29 127 -69 127 -76 0 -4
9 -8 20 -8 11 0 20 -4 20 -10 0 -5 9 -10 20 -10 11 0 20 -3 20 -8 0 -4 43 -29
95 -56 52 -27 95 -53 95 -58 0 -4 9 -8 19 -8 11 0 21 -3 23 -7 2 -5 31 -21 65
-38 35 -16 63 -33 63 -37 0 -5 9 -8 20 -8 11 0 20 -4 20 -10 0 -5 9 -10 20
-10 11 0 20 -4 20 -10 0 -5 9 -10 19 -10 11 0 21 -3 23 -7 5 -12 111 -63 130
-63 9 0 18 -4 20 -9 4 -11 195 -101 214 -101 8 0 14 -4 14 -10 0 -5 9 -10 20
-10 11 0 20 -4 20 -10 0 -5 7 -10 15 -10 8 0 23 -4 33 -9 55 -28 196 -81 215
-81 9 0 17 -4 17 -10 0 -5 11 -10 25 -10 14 0 25 -4 25 -10 0 -5 9 -10 20 -10
11 0 28 -4 38 -9 19 -11 103 -35 177 -52 28 -6 60 -15 73 -20 13 -5 45 -9 72
-9 27 0 52 -4 55 -10 8 -13 172 -13 180 0 3 6 22 10 41 10 19 0 42 4 52 9 9 5
39 19 65 30 26 12 71 45 100 74 52 52 117 162 117 198 0 10 5 19 10 19 6 0 10
22 10 48 0 26 5 53 10 58 19 19 -1 654 -21 654 -5 0 -9 34 -9 75 0 43 -4 75
-10 75 -6 0 -10 28 -10 65 0 36 -4 65 -9 65 -5 0 -12 26 -14 58 -3 31 -10 83
-16 115 -6 31 -15 81 -20 110 -5 28 -13 66 -16 82 -4 17 -17 84 -30 150 -24
122 -28 146 -46 225 -6 25 -13 63 -16 85 -3 22 -9 44 -14 50 -5 5 -9 26 -9 47
0 21 -4 38 -10 38 -5 0 -10 20 -10 45 0 25 -4 45 -9 45 -5 0 -11 19 -15 43
-11 87 -19 122 -29 128 -5 4 -7 14 -4 23 6 14 115 16 1164 18 l1158 3 -100 23
c-55 13 -110 28 -123 33 -13 5 -36 9 -52 9 -16 0 -32 5 -35 10 -3 6 -21 10
-40 10 -19 0 -37 5 -40 10 -3 6 -22 10 -41 10 -19 0 -42 4 -52 9 -9 5 -69 19
-132 31 -193 38 -203 41 -255 51 -27 6 -70 13 -95 16 -25 3 -49 9 -54 14 -6 5
-26 9 -45 9 -19 0 -48 4 -65 10 -33 10 -210 48 -264 57 -18 3 -35 9 -38 14 -3
5 -18 9 -35 9 -16 0 -29 5 -29 10 0 6 -13 10 -29 10 -17 0 -33 5 -36 10 -3 6
-16 10 -29 10 -12 0 -26 4 -32 8 -24 22 -109 32 -354 43 -146 6 -308 14 -360
18 l-95 6 -3 38 c-2 20 -7 37 -12 37 -7 0 -10 13 -26 118 -3 23 -10 42 -15 42
-5 0 -9 18 -9 39 0 22 -4 42 -9 45 -5 3 -11 20 -14 38 -3 18 -10 53 -16 78 -5
25 -13 59 -16 75 -4 17 -10 39 -15 50 -5 11 -11 34 -15 50 -11 57 -34 150 -45
190 -14 50 -29 111 -37 148 -3 15 -9 30 -14 33 -5 3 -9 21 -9 40 0 19 -4 34
-10 34 -5 0 -10 16 -10 35 0 19 -4 35 -10 35 -5 0 -10 14 -10 30 0 17 -4 30
-10 30 -5 0 -10 13 -10 28 0 15 -4 32 -8 38 -5 5 -14 29 -21 54 -7 25 -17 54
-22 65 -5 11 -20 54 -34 95 -26 76 -40 111 -56 142 -5 10 -9 27 -9 38 0 11 -4
20 -10 20 -5 0 -10 9 -10 20 0 11 -4 20 -10 20 -5 0 -10 11 -10 25 0 14 -4 25
-10 25 -5 0 -10 9 -10 20 0 11 -4 20 -10 20 -5 0 -10 9 -10 19 0 11 -3 21 -7
23 -5 2 -20 28 -35 58 -43 88 -92 175 -100 178 -5 2 -8 10 -8 18 0 8 -4 14
-10 14 -5 0 -10 6 -10 13 0 6 -10 24 -23 38 -12 15 -35 44 -52 65 -29 38 -125
135 -178 182 -15 12 -33 22 -42 22 -8 0 -15 3 -15 8 0 7 -28 18 -110 44 -39
12 -222 23 -231 13z m151 -632 c0 -7 5 -13 10 -13 6 0 10 -6 10 -13 0 -7 9
-19 20 -27 11 -8 20 -22 20 -32 0 -10 4 -18 8 -18 5 0 14 -16 22 -35 8 -19 17
-35 22 -35 4 0 8 -6 8 -14 0 -7 11 -34 25 -60 14 -26 25 -54 25 -62 0 -7 5
-14 10 -14 6 0 10 -9 10 -19 0 -11 5 -23 10 -26 6 -3 10 -15 10 -26 0 -10 5
-19 10 -19 6 0 10 -9 10 -20 0 -11 5 -20 10 -20 6 0 10 -13 10 -30 0 -16 5
-30 10 -30 6 0 10 -11 10 -25 0 -14 5 -25 10 -25 6 0 10 -9 10 -20 0 -11 4
-28 9 -38 25 -49 81 -223 81 -252 0 -10 5 -22 10 -25 6 -3 10 -19 10 -35 0
-16 5 -32 10 -35 6 -3 10 -19 10 -36 0 -16 5 -29 10 -29 6 0 10 -15 10 -34 0
-19 5 -38 10 -41 6 -3 10 -19 10 -36 0 -16 5 -29 10 -29 6 0 10 -18 10 -40 0
-22 4 -40 9 -40 5 0 11 -17 14 -37 7 -52 17 -94 27 -118 5 -11 11 -36 15 -55
4 -19 11 -51 16 -70 4 -19 15 -66 24 -105 9 -38 20 -86 24 -105 5 -19 12 -50
16 -68 l8 -33 -114 6 c-135 6 -573 22 -888 30 l-223 7 5 26 c3 15 17 59 32 97
14 39 33 90 42 115 8 25 19 49 24 55 5 5 9 19 9 31 0 13 5 26 10 29 6 3 10 17
10 31 0 13 5 24 10 24 6 0 10 11 10 24 0 14 5 28 10 31 6 3 10 19 10 36 0 16
5 29 10 29 6 0 10 14 10 30 0 17 5 30 10 30 6 0 10 13 10 29 0 17 4 32 9 35 5
3 11 16 14 28 3 13 13 50 22 83 34 120 57 211 62 243 3 18 9 35 14 38 5 3 9
18 9 35 0 16 5 29 10 29 6 0 10 20 10 45 0 25 5 45 10 45 6 0 10 16 10 35 0
19 5 35 10 35 6 0 10 18 10 40 0 22 5 40 10 40 6 0 10 14 10 30 0 17 4 38 9
48 5 9 14 35 19 57 6 22 22 81 36 132 14 51 26 99 26 107 0 9 5 16 10 16 6 0
10 9 10 20 0 10 8 35 17 54 15 32 18 34 29 18 8 -9 14 -23 14 -29z m750 -2332
c0 -16 5 -33 10 -36 6 -3 10 -19 10 -36 0 -16 4 -37 9 -47 5 -9 14 -44 20 -77
7 -33 21 -100 33 -150 11 -49 23 -111 25 -137 3 -27 9 -48 14 -48 5 0 9 -18 9
-39 0 -22 5 -43 10 -46 6 -3 10 -26 10 -50 0 -24 5 -47 10 -50 6 -3 10 -24 10
-45 0 -21 5 -42 10 -45 6 -3 10 -26 10 -50 0 -24 5 -47 10 -50 6 -3 10 -28 10
-56 0 -27 4 -49 9 -49 5 0 11 -21 14 -47 6 -52 20 -135 37 -228 27 -145 56
-423 66 -634 l7 -143 -54 7 c-30 4 -58 11 -64 16 -5 5 -21 9 -36 9 -15 0 -31
5 -34 10 -3 6 -17 10 -31 10 -13 0 -24 5 -24 10 0 6 -13 10 -30 10 -16 0 -30
4 -30 8 0 4 -21 14 -47 21 -47 14 -100 34 -135 52 -10 5 -25 9 -33 9 -8 0 -15
5 -15 10 0 6 -9 10 -20 10 -11 0 -20 5 -20 10 0 6 -6 10 -14 10 -14 0 -139 54
-209 90 -22 11 -45 20 -53 20 -8 0 -14 3 -14 8 0 4 -37 25 -82 47 -46 21 -84
43 -86 47 -2 4 -12 8 -23 8 -10 0 -19 5 -19 10 0 6 -9 10 -19 10 -11 0 -21 3
-23 8 -1 4 -30 21 -63 37 -33 17 -62 32 -65 35 -3 3 -26 16 -52 29 -27 13 -48
28 -48 33 0 4 -9 8 -20 8 -11 0 -20 3 -20 8 0 4 -20 16 -45 27 -25 11 -45 23
-45 27 0 5 -9 8 -20 8 -11 0 -20 5 -20 10 0 6 -8 10 -18 10 -10 0 -24 9 -32
20 -8 11 -22 20 -32 20 -10 0 -18 3 -18 8 0 4 -20 16 -45 27 -25 11 -45 23
-45 27 0 5 -8 8 -18 8 -10 0 -24 9 -32 20 -8 11 -22 20 -32 20 -10 0 -18 5
-18 10 0 6 -5 10 -10 10 -6 0 -36 16 -66 35 -30 19 -59 35 -64 35 -6 0 -10 5
-10 10 0 6 -9 10 -20 10 -11 0 -20 5 -20 10 0 6 -5 10 -10 10 -6 0 -36 16 -66
35 -30 19 -59 35 -64 35 -6 0 -10 5 -10 10 0 6 -9 10 -19 10 -11 0 -21 4 -23
8 -1 5 -31 24 -66 42 -60 32 -63 34 -56 64 3 17 10 35 15 41 5 5 9 17 9 27 0
10 5 18 10 18 6 0 10 9 10 20 0 11 5 20 10 20 6 0 10 8 10 18 0 22 22 72 33
72 4 0 7 11 7 24 0 14 5 28 10 31 6 3 10 15 10 26 0 10 5 19 10 19 6 0 10 9
10 20 0 11 5 20 10 20 6 0 10 11 10 25 0 14 5 25 10 25 6 0 10 7 10 15 0 8 4
23 10 33 17 31 60 132 60 142 0 6 4 10 8 10 4 0 14 20 21 45 7 25 17 45 22 45
5 0 9 11 9 25 0 14 5 25 10 25 6 0 10 9 10 19 0 11 5 23 10 26 6 3 10 15 10
26 0 10 5 19 10 19 6 0 10 8 10 18 0 9 7 25 14 35 12 16 50 17 537 18 288 0
547 4 574 8 28 3 143 8 258 9 l207 4 0 -31z m-2190 -16 c0 -3 -4 -13 -9 -23
-6 -9 -22 -44 -36 -77 -15 -33 -35 -77 -46 -98 -10 -22 -19 -45 -19 -53 0 -8
-4 -14 -10 -14 -5 0 -10 -11 -10 -25 0 -14 -4 -25 -10 -25 -5 0 -10 -9 -10
-19 0 -11 -4 -23 -10 -26 -5 -3 -10 -15 -10 -26 0 -10 -4 -19 -10 -19 -5 0
-10 -9 -10 -19 0 -11 -4 -23 -10 -26 -5 -3 -10 -15 -10 -26 0 -10 -4 -19 -10
-19 -5 0 -10 -6 -10 -14 0 -7 -9 -34 -20 -58 -17 -39 -23 -45 -45 -40 -14 2
-25 8 -25 13 0 5 -9 9 -20 9 -11 0 -20 3 -20 8 0 4 -29 21 -65 37 -36 17 -65
33 -65 38 0 4 -6 7 -14 7 -8 0 -16 3 -18 8 -1 4 -28 20 -58 35 -97 50 -135 72
-138 80 -2 4 -12 7 -23 7 -10 0 -19 5 -19 10 0 6 -9 10 -20 10 -11 0 -20 4
-20 9 0 4 -29 21 -65 37 -36 16 -65 32 -65 37 0 4 -9 7 -20 7 -11 0 -20 5 -20
10 0 6 -9 10 -20 10 -11 0 -20 4 -20 8 0 5 -37 26 -82 47 -46 22 -84 43 -86
47 -2 4 -12 8 -23 8 -10 0 -19 5 -19 10 0 6 -9 10 -20 10 -11 0 -20 5 -20 10
0 6 -9 10 -20 10 -11 0 -20 5 -20 10 0 6 -4 10 -10 10 -17 0 -120 52 -120 61
0 5 308 9 715 9 393 0 715 -2 715 -5z"/>
</g>
</svg>
